<svg xmlns="http://www.w3.org/2000/svg" xmlns:xlink="http://www.w3.org/1999/xlink" version="1.1" width="600" height="200" viewBox="0 0 600 200" xml:space="preserve">
<desc>Created with Fabric.js 3.5.0</desc>
<defs>
</defs>
<g transform="matrix(0.4013 0 0 0.4825 205.3 -12.1667)" id="483763">
<g style="">
		<g transform="matrix(0.1333 0 0 -0.1333 -528.025 232.9546)">
<path style="stroke: none; stroke-width: 1; stroke-dasharray: none; stroke-linecap: butt; stroke-dashoffset: 0; stroke-linejoin: miter; stroke-miterlimit: 4; is-custom-font: none; font-file-url: none; fill: rgb(0,0,0); fill-rule: nonzero; opacity: 1;" transform=" translate(-3540, -3232.5)" d="M 2790 4586 c 0 -5 42 -52 93 -104 c 50 -53 97 -101 102 -107 c 6 -7 129 -135 275 -286 c 146 -150 330 -341 410 -424 c 80 -82 205 -211 278 -286 c 72 -75 132 -141 132 -147 c 0 -6 -19 -30 -43 -54 c -23 -24 -157 -162 -297 -308 c -140 -146 -266 -277 -280 -291 c -51 -54 -557 -576 -612 -633 c -32 -33 -58 -63 -58 -68 c 0 -4 44 -8 98 -8 l 99 0 l 119 123 c 65 67 227 234 359 371 c 132 137 258 267 280 290 c 347 356 545 566 545 577 c 0 7 -39 54 -88 103 c -48 50 -204 212 -347 360 c -237 246 -345 358 -670 695 c -60 63 -130 135 -155 160 l -46 45 l -97 1 c -53 0 -97 -4 -97 -9 z" stroke-linecap="round"/>
</g>
		<g transform="matrix(0.1333 0 0 -0.1333 -388.8235 233.0752)">
<path  style=" stroke: none; stroke-width: 1; stroke-dasharray: none; stroke-linecap: butt; stroke-dashoffset: 0; stroke-linejoin: miter; stroke-miterlimit: 4; is-custom-font: none; font-file-url: none; fill: rgb(0,0,0); fill-rule: nonzero; opacity: 1;" transform=" translate(-4584.0251, -3231.5958)" d="M 3780 4586 c 0 -4 48 -58 108 -119 c 59 -62 112 -117 117 -123 c 6 -6 116 -120 245 -254 c 129 -134 253 -262 275 -285 c 45 -47 239 -247 423 -437 c 67 -69 122 -131 122 -137 c 0 -5 -75 -88 -167 -183 c -93 -95 -217 -224 -278 -287 c -60 -63 -137 -142 -170 -177 c -417 -433 -532 -551 -597 -618 c -42 -44 -75 -83 -72 -88 c 3 -4 72 -8 153 -8 l 148 0 l 184 192 c 101 105 209 216 239 247 c 46 47 178 185 575 597 c 22 23 100 103 173 178 c 74 75 132 142 130 150 c -2 8 -59 73 -128 143 c -69 70 -240 247 -380 393 c -260 271 -383 398 -646 668 l -149 153 l -153 2 c -83 1 -152 -2 -152 -7 z" stroke-linecap="round"/>
</g>
		<g transform="matrix(0.1333 0 0 -0.1333 -249.6953 232.9546)">
<path style="stroke: none; stroke-width: 1; stroke-dasharray: none; stroke-linecap: butt; stroke-dashoffset: 0; stroke-linejoin: miter; stroke-miterlimit: 4; is-custom-font: none; font-file-url: none; fill: rgb(0,0,0); fill-rule: nonzero; opacity: 1;" transform=" translate(-5627.5, -3232.5)" d="M 4773 4587 c -3 -4 44 -58 104 -119 c 59 -62 113 -117 118 -123 c 9 -10 407 -423 520 -539 c 304 -312 545 -566 545 -574 c 0 -6 -19 -30 -43 -54 c -23 -24 -157 -162 -297 -308 c -140 -146 -266 -277 -280 -291 c -14 -15 -140 -145 -280 -290 c -337 -348 -390 -404 -390 -412 c 0 -4 93 -7 206 -7 l 206 0 l 67 68 c 36 37 181 186 321 332 c 140 146 273 284 295 306 c 556 571 620 640 620 659 c 0 10 -124 141 -530 559 c -22 22 -155 160 -295 306 c -140 146 -305 317 -367 380 l -112 114 l -201 1 c -111 0 -204 -4 -207 -8 z" stroke-linecap="round"/>
</g>
		<g transform="matrix(0.1333 0 0 -0.1333 -109.6468 233.0442)">
<path style="stroke: none; stroke-width: 1; stroke-dasharray: none; stroke-linecap: butt; stroke-dashoffset: 0; stroke-linejoin: miter; stroke-miterlimit: 4; is-custom-font: none; font-file-url: none; fill: rgb(0,0,0); fill-rule: nonzero; opacity: 1;" transform=" translate(-6677.8821, -3231.8284)" d="M 5758 4592 c -26 -5 -14 -21 85 -123 c 190 -196 715 -739 882 -913 c 28 -29 108 -112 178 -184 c 93 -95 126 -135 120 -145 c -15 -27 -206 -228 -638 -671 c -49 -51 -187 -194 -305 -317 c -118 -122 -243 -252 -277 -288 c -34 -35 -60 -68 -57 -73 c 3 -4 129 -8 281 -8 l 276 0 l 75 77 c 41 43 185 193 321 333 c 135 140 305 316 376 390 c 171 177 353 365 454 468 c 45 46 81 88 81 94 c 0 6 -21 32 -47 58 c -27 26 -93 94 -148 151 c -54 57 -163 169 -240 249 c -172 177 -590 611 -751 778 l -119 124 l -266 1 c -146 1 -272 1 -281 -1 z" stroke-linecap="round"/>
</g>
		<g transform="matrix(0.1333 0 0 -0.1333 29.2999 233.0109)">
<path style="stroke: none; stroke-width: 1; stroke-dasharray: none; stroke-linecap: butt; stroke-dashoffset: 0; stroke-linejoin: miter; stroke-miterlimit: 4; is-custom-font: none; font-file-url: none; fill: rgb(0,0,0); fill-rule: nonzero; opacity: 1;" transform=" translate(-7720, -3232.0771)" d="M 6720 4586 c 0 -6 39 -51 88 -100 c 92 -96 529 -550 597 -621 c 22 -22 99 -102 170 -176 c 382 -394 425 -441 425 -459 c 0 -11 -24 -43 -53 -72 c -29 -29 -174 -179 -322 -333 c -148 -154 -319 -331 -380 -394 c -60 -62 -134 -139 -164 -170 c -30 -31 -123 -126 -208 -213 c -84 -86 -153 -161 -153 -167 c 0 -8 102 -11 344 -11 l 344 0 l 59 59 c 91 92 286 294 563 581 c 140 146 310 321 377 390 c 216 221 313 325 313 334 c 0 5 -28 37 -62 71 c -74 73 -188 192 -538 555 c -140 146 -310 321 -377 390 c -67 69 -168 174 -226 234 l -104 109 l -346 1 c -210 1 -347 -3 -347 -8 z" stroke-linecap="round"/>
</g>
</g>
</g>
<g transform="matrix(1 0 0 1 417.9654 100)" style="" id="723426">
		
<path xml:space="preserve" font-family="Lato" font-size="100" font-style="normal" font-weight="bold" style="stroke: none; stroke-width: 1; stroke-dasharray: none; stroke-linecap: butt; stroke-dashoffset: 0; stroke-linejoin: miter; stroke-miterlimit: 4; is-custom-font: none; font-file-url: none; fill: rgb(0,0,0); fill-rule: nonzero; opacity: 1; white-space: pre;" d="M-44.45-4.74L-44.45-4.74Q-44.45 0.11-45.45 4.54Q-46.45 8.96-48.33 12.81Q-50.20 16.66-52.90 19.89Q-55.60 23.11-59.05 25.56L-59.05 25.56L-40.70 45.56L-51.80 45.56Q-54.20 45.56-56.13 44.91Q-58.05 44.26-59.65 42.51L-59.65 42.51L-70.25 30.81Q-72.80 31.51-75.48 31.86Q-78.15 32.21-81.05 32.21L-81.05 32.21Q-89.25 32.21-96.03 29.44Q-102.80 26.66-107.63 21.71Q-112.45 16.76-115.10 9.99Q-117.75 3.21-117.75-4.74L-117.75-4.74Q-117.75-12.69-115.10-19.46Q-112.45-26.24-107.63-31.19Q-102.80-36.14-96.03-38.91Q-89.25-41.69-81.05-41.69L-81.05-41.69Q-72.85-41.69-66.10-38.89Q-59.35-36.09-54.55-31.16Q-49.75-26.24-47.10-19.46Q-44.45-12.69-44.45-4.74ZM-58.25-4.74L-58.25-4.74Q-58.25-10.69-59.83-15.41Q-61.40-20.14-64.35-23.44Q-67.30-26.74-71.53-28.49Q-75.75-30.24-81.05-30.24L-81.05-30.24Q-86.35-30.24-90.60-28.49Q-94.85-26.74-97.83-23.44Q-100.80-20.14-102.40-15.41Q-104.00-10.69-104.00-4.74L-104.00-4.74Q-104.00 1.21-102.40 5.94Q-100.80 10.66-97.83 13.94Q-94.85 17.21-90.60 18.96Q-86.35 20.71-81.05 20.71L-81.05 20.71Q-75.75 20.71-71.53 18.96Q-67.30 17.21-64.35 13.94Q-61.40 10.66-59.83 5.94Q-58.25 1.21-58.25-4.74ZM-17.70 32.21L-17.70 32.21Q-24.35 32.21-27.95 28.44Q-31.55 24.66-31.55 18.01L-31.55 18.01L-31.55-10.64L-36.75-10.64Q-37.75-10.64-38.48-11.29Q-39.20-11.94-39.20-13.24L-39.20-13.24L-39.20-18.14L-30.95-19.49L-28.35-33.49Q-28.15-34.49-27.43-35.04Q-26.70-35.59-25.60-35.59L-25.60-35.59L-19.20-35.59L-19.20-19.44L-5.70-19.44L-5.70-10.64L-19.20-10.64L-19.20 17.16Q-19.20 19.56-18.00 20.91Q-16.80 22.26-14.80 22.26L-14.80 22.26Q-13.65 22.26-12.88 21.99Q-12.10 21.71-11.53 21.41Q-10.95 21.11-10.50 20.84Q-10.05 20.56-9.60 20.56L-9.60 20.56Q-9.05 20.56-8.70 20.84Q-8.35 21.11-7.95 21.66L-7.95 21.66L-4.25 27.66Q-6.95 29.91-10.45 31.06Q-13.95 32.21-17.70 32.21ZM44.35-0.99L44.35 31.41L38.80 31.41Q37.05 31.41 36.05 30.89Q35.05 30.36 34.55 28.76L34.55 28.76L33.45 25.11Q31.50 26.86 29.62 28.19Q27.75 29.51 25.75 30.41Q23.75 31.31 21.50 31.76Q19.25 32.21 16.50 32.21L16.50 32.21Q13.25 32.21 10.50 31.34Q7.75 30.46 5.77 28.71Q3.80 26.96 2.70 24.36Q1.60 21.76 1.60 18.31L1.60 18.31Q1.60 15.41 3.12 12.59Q4.65 9.76 8.20 7.49Q11.75 5.21 17.65 3.71Q23.55 2.21 32.30 2.01L32.30 2.01L32.30-0.99Q32.30-6.14 30.12-8.61Q27.95-11.09 23.80-11.09L23.80-11.09Q20.80-11.09 18.80-10.39Q16.80-9.69 15.32-8.81Q13.85-7.94 12.60-7.24Q11.35-6.54 9.85-6.54L9.85-6.54Q8.60-6.54 7.70-7.19Q6.80-7.84 6.25-8.79L6.25-8.79L4.00-12.74Q12.85-20.84 25.35-20.84L25.35-20.84Q29.85-20.84 33.37-19.36Q36.90-17.89 39.35-15.26Q41.80-12.64 43.07-8.99Q44.35-5.34 44.35-0.99L44.35-0.99ZM20.35 23.71L20.35 23.71Q22.25 23.71 23.85 23.36Q25.45 23.01 26.87 22.31Q28.30 21.61 29.62 20.59Q30.95 19.56 32.30 18.16L32.30 18.16L32.30 9.51Q26.90 9.76 23.27 10.44Q19.65 11.11 17.45 12.16Q15.25 13.21 14.32 14.61Q13.40 16.01 13.40 17.66L13.40 17.66Q13.40 20.91 15.32 22.31Q17.25 23.71 20.35 23.71ZM51.10 31.41L68.65 4.96L51.80-19.89L63.70-19.89Q65.05-19.89 65.70-19.51Q66.35-19.14 66.85-18.29L66.85-18.29L77.60-1.14Q77.85-1.99 78.22-2.84Q78.60-3.69 79.15-4.54L79.15-4.54L87.80-18.04Q88.40-18.99 89.05-19.44Q89.70-19.89 90.65-19.89L90.65-19.89L102.00-19.89L85.10 4.41L102.70 31.41L90.80 31.41Q89.45 31.41 88.62 30.71Q87.80 30.01 87.25 29.11L87.25 29.11L76.35 11.26Q75.90 13.06 75.10 14.26L75.10 14.26L65.50 29.11Q64.95 29.96 64.15 30.69Q63.35 31.41 62.15 31.41L62.15 31.41L51.10 31.41ZM111.30-19.89L123.65-19.89L123.65 31.41L111.30 31.41L111.30-19.89ZM125.50-34.84L125.50-34.84Q125.50-33.24 124.85-31.84Q124.20-30.44 123.12-29.39Q122.05-28.34 120.60-27.71Q119.15-27.09 117.50-27.09L117.50-27.09Q115.90-27.09 114.47-27.71Q113.05-28.34 112.00-29.39Q110.95-30.44 110.32-31.84Q109.70-33.24 109.70-34.84L109.70-34.84Q109.70-36.49 110.32-37.94Q110.95-39.39 112.00-40.44Q113.05-41.49 114.47-42.11Q115.90-42.74 117.50-42.74L117.50-42.74Q119.15-42.74 120.60-42.11Q122.05-41.49 123.12-40.44Q124.20-39.39 124.85-37.94Q125.50-36.49 125.50-34.84Z"/></g>
</svg>